<?xml version="1.0" standalone="no"?>
<!DOCTYPE svg PUBLIC "-//W3C//DTD SVG 20010904//EN"
 "http://www.w3.org/TR/2001/REC-SVG-20010904/DTD/svg10.dtd">
<svg version="1.0" xmlns="http://www.w3.org/2000/svg"
 width="700.000000pt" height="700.000000pt" viewBox="0 0 700.000000 700.000000"
 preserveAspectRatio="xMidYMid meet">
<metadata>
Created by potrace 1.14, written by Peter Selinger 2001-2017
</metadata>
<g transform="translate(0.000000,700.000000) scale(0.100000,-0.100000)"
fill="#000000" stroke="none">
<path d="M3278 6995 c-1 -1 -42 -5 -89 -9 -47 -4 -95 -8 -105 -10 -10 -2 -41
-7 -69 -10 -335 -44 -715 -158 -1030 -312 -180 -87 -448 -247 -555 -331 -8 -6
-51 -40 -95 -74 -342 -266 -650 -623 -875 -1014 -47 -83 -170 -327 -170 -340
0 -3 -9 -24 -20 -48 -30 -65 -95 -243 -120 -332 -12 -44 -26 -91 -31 -105 -7
-22 -22 -83 -35 -145 -47 -235 -54 -277 -71 -465 -15 -165 -8 -592 12 -711 2
-13 6 -46 9 -74 9 -78 22 -152 51 -285 21 -96 91 -339 114 -395 5 -11 25 -65
46 -120 64 -170 213 -461 314 -615 213 -323 469 -603 771 -845 92 -74 370
-265 386 -265 4 0 15 -6 23 -14 26 -22 260 -140 391 -196 268 -115 597 -207
879 -246 25 -3 57 -8 71 -10 162 -25 683 -25 841 1 13 2 47 7 74 10 71 10 87
13 115 18 14 3 43 8 65 12 22 4 76 16 120 27 44 10 87 21 96 23 144 33 420
133 591 214 47 23 91 41 97 41 6 0 37 -13 69 -29 78 -38 190 -74 282 -89 55
-9 269 -9 325 0 134 20 293 86 405 167 107 76 236 234 302 366 23 45 62 152
61 165 0 3 3 15 8 27 11 30 22 125 23 208 2 65 -1 88 -19 200 -8 43 -43 143
-70 194 l-16 32 54 92 c64 108 151 275 191 367 16 36 36 83 46 105 54 123 147
418 176 560 17 81 54 301 59 350 4 33 9 71 11 85 9 47 11 525 4 605 -15 157
-21 210 -25 225 -2 8 -7 35 -10 60 -17 129 -80 384 -136 552 -348 1036 -1168
1857 -2204 2206 -168 57 -420 119 -555 137 -19 3 -46 7 -60 10 -13 2 -52 7
-86 11 -33 3 -74 8 -90 10 -33 5 -540 14 -546 9z"/>
</g>
</svg>
