<?xml version="1.0" standalone="no"?>
<!DOCTYPE svg PUBLIC "-//W3C//DTD SVG 20010904//EN"
 "http://www.w3.org/TR/2001/REC-SVG-20010904/DTD/svg10.dtd">
<svg version="1.0" xmlns="http://www.w3.org/2000/svg"
 width="700.000000pt" height="700.000000pt" viewBox="0 0 700.000000 700.000000"
 preserveAspectRatio="xMidYMid meet">
<metadata>
Created by potrace 1.14, written by Peter Selinger 2001-2017
</metadata>
<g transform="translate(0.000000,700.000000) scale(0.100000,-0.100000)"
fill="#000000" stroke="none">
<path d="M1996 4469 c-217 -23 -414 -97 -565 -213 -81 -63 -201 -193 -236
-257 -41 -76 -41 -147 0 -214 39 -63 90 -90 170 -90 77 0 122 27 175 105 167
246 534 344 881 234 134 -42 233 -118 332 -254 18 -26 51 -55 77 -67 149 -76
318 63 276 226 -27 103 -184 275 -337 370 -144 89 -307 141 -498 160 -115 12
-160 12 -275 0z"/>
<path d="M4710 4469 c-248 -27 -474 -128 -638 -283 -195 -185 -237 -332 -125
-438 82 -78 219 -74 281 8 115 151 159 191 267 244 112 56 202 73 370 73 134
0 160 -3 240 -27 158 -48 276 -129 355 -247 46 -66 89 -97 152 -105 168 -23
277 150 193 305 -64 117 -249 283 -400 358 -186 94 -462 138 -695 112z"/>
<path d="M1269 2897 c-79 -42 -120 -132 -100 -219 17 -75 78 -233 137 -355
150 -308 363 -589 606 -798 340 -292 739 -466 1233 -537 123 -17 580 -17 705
0 130 19 267 47 378 78 l93 27 342 -340 342 -340 100 -50 c185 -94 345 -130
539 -120 239 11 439 95 609 257 257 243 362 606 271 930 -24 85 -82 209 -130
276 -24 34 -182 205 -352 380 l-309 319 29 69 c53 129 80 228 73 269 -20 134
-146 210 -270 163 -61 -24 -100 -72 -125 -155 -83 -281 -257 -574 -475 -800
-288 -299 -623 -474 -1061 -553 -114 -20 -160 -23 -404 -23 -244 0 -290 3
-404 23 -607 110 -1060 429 -1365 962 -66 114 -161 334 -176 407 -3 17 -20 50
-36 73 -56 78 -164 102 -250 57z"/>
</g>
</svg>
